#define hackRVA_width 8
#define hackRVA_height 41
rom unsigned char hackRVA_bits[] = {
   0xff, 0x0c, 0x04, 0x0c, 0xf8, 0x00, 0x60, 0xf4, 0x9c, 0xbc, 0xfc, 0x00,
   0x78, 0xc8, 0x8c, 0x8c, 0x80, 0x00, 0xff, 0x38, 0x38, 0xec, 0x00, 0x00,
   0xff, 0x1b, 0x11, 0x7f, 0xc4, 0x00, 0x0f, 0xf8, 0xe0, 0x7c, 0x07, 0x00,
   0xf0, 0x3f, 0x27, 0x7e, 0xe0 };
